# xmcd
#
# Track frame offsets:
#	150
#	13753
#	26436
#	39588
#	50541
#	64153
#	74823
#	93396
#	103813
#	114718
#	126381
#	136243
#	146098
#	160701
#	172628
#
# Disc length: 2441 seconds
#
# Revision: 0
# Processed by: cddbd v1.5.1PL0 Copyright (c) Steve Scherf et al.
# Submitted via: dBpowerAMP V4.0
#
DISCID=d609870f
DTITLE=Ben E. King - The Best of Ben E. King
DYEAR=1900
DGENRE=Soul
TTITLE0=Stand by me
TTITLE1=Don't play that song (you lied)
TTITLE2=Spanish Harlem
TTITLE3=Save the last dance for me
TTITLE4=Amour
TTITLE5=I (who have nothing)
TTITLE6=Supernatural thing
TTITLE7=Young boy blues
TTITLE8=This magic moment
TTITLE9=Goodnight my love
TTITLE10=Dance with me
TTITLE11=I count the tears
TTITLE12=It's all over
TTITLE13=Lonely winds
TTITLE14=How can I forget
EXTD=
EXTT0=
EXTT1=
EXTT2=
EXTT3=
EXTT4=
EXTT5=
EXTT6=
EXTT7=
EXTT8=
EXTT9=
EXTT10=
EXTT11=
EXTT12=
EXTT13=
EXTT14=
PLAYORDER=
